<svg aria-hidden="true" style="position: absolute; width: 0; height: 0; overflow: hidden;" version="1.1" xmlns="http://www.w3.org/2000/svg" xmlns:xlink="http://www.w3.org/1999/xlink">
<defs>
<symbol id="icon-logorttcnc" viewBox="0 0 69 32">
<title>logorttcnc</title>
<path fill="#f3182c" style="fill: var(--color1, #f3182c)" d="M19.179 11.465c0.029-0.184 0.046-0.397 0.046-0.613s-0.017-0.429-0.049-0.636l0.003 0.023c-0.066-0.459-0.224-0.871-0.456-1.231l0.007 0.012c-0.257-0.393-0.597-0.71-0.996-0.933l-0.014-0.007c-0.45-0.238-0.985-0.378-1.551-0.378-0.049 0-0.098 0.001-0.146 0.003l0.007-0h-11.751c-0.002 0-0.004 0-0.006 0-0.227 0-0.445 0.044-0.644 0.123l0.012-0.004c-0.211 0.083-0.392 0.196-0.549 0.335l0.002-0.002c-0.16 0.142-0.295 0.307-0.401 0.49l-0.005 0.009c-0.104 0.176-0.179 0.381-0.215 0.599l-0.001 0.010-2.471 15.509h3.098l2.225-13.976h10.212c0.073 0 0.145 0.005 0.215 0.012l-0.009-0.001c0.077 0.008 0.146 0.036 0.204 0.078l-0.001-0.001c0.064 0.051 0.112 0.12 0.134 0.2l0.001 0.003c0.014 0.060 0.022 0.129 0.022 0.199s-0.008 0.139-0.023 0.206l0.001-0.006-0.311 1.953c-0.060 0.403-0.188 0.766-0.37 1.094l0.008-0.016c-0.178 0.314-0.401 0.581-0.665 0.8l-0.005 0.004c-0.262 0.216-0.566 0.395-0.896 0.522l-0.022 0.008c-0.324 0.126-0.7 0.213-1.091 0.243l-0.013 0.001h-6.999l-0.493 3.095h2.226l5.563 5.583h4.786l-5.576-5.583c0.442-0.004 0.87-0.052 1.283-0.138l-0.042 0.007c0.514-0.104 0.967-0.25 1.396-0.44l-0.043 0.017c0.513-0.223 0.953-0.472 1.363-0.76l-0.024 0.016c0.456-0.319 0.851-0.678 1.196-1.081l0.007-0.009c0.363-0.425 0.678-0.909 0.925-1.431l0.017-0.040c0.26-0.549 0.457-1.186 0.558-1.854l0.005-0.039zM44.522 7.703h-16.75l-0.493 3.095h6.833l-2.225 13.976h3.095l2.225-13.976h6.822zM68.564 7.703h-16.75l-0.493 3.095h6.833l-2.225 13.976h3.093l2.225-13.976h6.821z"></path>
</symbol>
<symbol id="icon-smile" viewBox="0 0 32 32">
<title>smile</title>
<path d="M16 32c8.837 0 16-7.163 16-16s-7.163-16-16-16-16 7.163-16 16 7.163 16 16 16zM16 3c7.18 0 13 5.82 13 13s-5.82 13-13 13-13-5.82-13-13 5.82-13 13-13zM8 10c0-1.105 0.895-2 2-2s2 0.895 2 2c0 1.105-0.895 2-2 2s-2-0.895-2-2zM20 10c0-1.105 0.895-2 2-2s2 0.895 2 2c0 1.105-0.895 2-2 2s-2-0.895-2-2zM22.003 19.602l2.573 1.544c-1.749 2.908-4.935 4.855-8.576 4.855s-6.827-1.946-8.576-4.855l2.573-1.544c1.224 2.036 3.454 3.398 6.003 3.398s4.779-1.362 6.003-3.398z"></path>
</symbol>
</defs>
</svg>
